<svg width="30" height="28" viewBox="0 0 30 28" fill="none" xmlns="http://www.w3.org/2000/svg">
<path d="M20.7571 2.34609C20.4293 2.5994 20.369 3.07042 20.6223 3.39816C20.8756 3.72589 21.3467 3.78622 21.6744 3.53292L20.7571 2.34609ZM23.7251 1L24.3137 0.535164C24.0589 0.212502 23.5918 0.155153 23.2664 0.406588L23.7251 1ZM28.854 7.49433L29.2758 8.11452C29.4479 7.99745 29.5637 7.81409 29.5953 7.60831C29.627 7.40254 29.5716 7.19287 29.4426 7.02949L28.854 7.49433ZM25.9843 8.53878C25.6418 8.7717 25.5529 9.23818 25.7858 9.58071C26.0188 9.92323 26.4853 10.0121 26.8278 9.77917L25.9843 8.53878ZM4.94586 16.403C4.80284 16.0142 4.37176 15.815 3.98302 15.958C3.59428 16.1011 3.39509 16.5322 3.53812 16.9209L4.94586 16.403ZM7.37178 21.1838L6.88078 21.7508H6.88078L7.37178 21.1838ZM12.1571 24.3877C12.5618 24.4757 12.9613 24.219 13.0494 23.8142C13.1374 23.4095 12.8807 23.01 12.4759 22.9219L12.1571 24.3877ZM26.2238 3.20469C25.9051 3.46925 25.8612 3.9421 26.1258 4.26081C26.3904 4.57952 26.8632 4.62342 27.1819 4.35886L26.2238 3.20469ZM29.479 2.45202C29.7978 2.18746 29.8416 1.71462 29.5771 1.3959C29.3125 1.07719 28.8397 1.03329 28.521 1.29786L29.479 2.45202ZM25.9529 13.7409C25.9529 20.3407 20.5425 25.7045 13.8514 25.7045V27.2045C21.3557 27.2045 27.4529 21.1843 27.4529 13.7409H25.9529ZM13.8514 25.7045C7.16036 25.7045 1.75 20.3407 1.75 13.7409H0.25C0.25 21.1843 6.34722 27.2045 13.8514 27.2045V25.7045ZM1.75 13.7409C1.75 7.14123 7.16035 1.77734 13.8514 1.77734V0.277337C6.34722 0.277337 0.25 6.29759 0.25 13.7409H1.75ZM13.8514 1.77734C20.5425 1.77734 25.9529 7.14123 25.9529 13.7409H27.4529C27.4529 6.29759 21.3557 0.277337 13.8514 0.277337V1.77734ZM21.6744 3.53292L24.1838 1.59341L23.2664 0.406588L20.7571 2.34609L21.6744 3.53292ZM23.1365 1.46484L28.2654 7.95916L29.4426 7.02949L24.3137 0.535164L23.1365 1.46484ZM28.4323 6.87413L25.9843 8.53878L26.8278 9.77917L29.2758 8.11452L28.4323 6.87413ZM3.53812 16.9209C4.22377 18.7845 5.37384 20.4457 6.88078 21.7508L7.86277 20.6169C6.54656 19.477 5.5435 18.0274 4.94586 16.403L3.53812 16.9209ZM6.88078 21.7508C8.38767 23.0558 10.2027 23.9626 12.1571 24.3877L12.4759 22.9219C10.7657 22.55 9.17904 21.7568 7.86277 20.6169L6.88078 21.7508ZM27.1819 4.35886L29.479 2.45202L28.521 1.29786L26.2238 3.20469L27.1819 4.35886Z" fill="#3F50EB"/>
</svg>
