<svg width="68" height="68" viewBox="0 0 68 68" fill="none" xmlns="http://www.w3.org/2000/svg">
<path d="M18.6914 18.6914H18.7248M64.0585 40.0897L40.1231 64.0251C39.503 64.6459 38.7667 65.1383 37.9561 65.4743C37.1456 65.8103 36.2768 65.9833 35.3994 65.9833C34.522 65.9833 33.6532 65.8103 32.8427 65.4743C32.0322 65.1383 31.2958 64.6459 30.6758 64.0251L2 35.3827V2H35.3827L64.0585 30.6758C65.302 31.9267 66 33.6189 66 35.3827C66 37.1466 65.302 38.8388 64.0585 40.0897Z" stroke="black" stroke-width="3" stroke-linecap="round" stroke-linejoin="round"/>
<path d="M30.2426 30.2426L45.799 45.7989M36.6066 29.5355L31.3033 34.8388C30.6469 35.4952 30.2782 36.3854 30.2782 37.3137C30.2782 38.2419 30.6469 39.1322 31.3033 39.7885C31.9597 40.4449 32.8499 40.8137 33.7782 40.8137C34.7064 40.8137 35.5967 40.4449 36.253 39.7885L39.7886 36.253C40.445 35.5966 41.3352 35.2279 42.2635 35.2279C43.1917 35.2279 44.082 35.5966 44.7383 36.253C45.3947 36.9094 45.7635 37.7996 45.7635 38.7279C45.7635 39.6561 45.3947 40.5464 44.7383 41.2027L38.7279 47.2132" stroke="black" stroke-width="3" stroke-linecap="round" stroke-linejoin="round"/>
</svg>
