<svg width="60" height="55" viewBox="0 0 60 55" fill="none" xmlns="http://www.w3.org/2000/svg">
<path d="M47.1223 52.7626V47.1223C47.1223 44.1305 45.9338 41.2612 43.8183 39.1457C41.7028 37.0302 38.8335 35.8417 35.8417 35.8417H13.2806C10.2888 35.8417 7.41952 37.0302 5.304 39.1457C3.18849 41.2612 2 44.1305 2 47.1223V52.7626M58 52.7626V47.1223C57.9981 44.6229 57.1662 42.1949 55.6349 40.2195C54.1036 38.2441 51.9596 36.8332 49.5396 36.2083M38.259 2.36663C40.6854 2.98791 42.8361 4.39911 44.372 6.37775C45.9079 8.35639 46.7415 10.7899 46.7415 13.2947C46.7415 15.7995 45.9079 18.233 44.372 20.2116C42.8361 22.1903 40.6854 23.6015 38.259 24.2227M35.8417 13.2806C35.8417 19.5107 30.7912 24.5611 24.5611 24.5611C18.3311 24.5611 13.2806 19.5107 13.2806 13.2806C13.2806 7.05048 18.3311 2 24.5611 2C30.7912 2 35.8417 7.05048 35.8417 13.2806Z" stroke="white" stroke-width="3" stroke-linecap="round" stroke-linejoin="round"/>
</svg>
